<svg width="229" height="268" viewBox="0 0 229 268" fill="none" xmlns="http://www.w3.org/2000/svg">
<path d="M146.63 139.442C170.389 147.572 191.257 164.492 206.107 187.669C220.957 210.846 228.989 239.031 229 268H0C0.00507743 239.029 8.03511 210.841 22.8859 187.663C37.7367 164.485 58.6079 147.566 82.3695 139.442L114.5 195.846L146.63 139.442ZM171.75 67C171.75 84.7695 165.718 101.811 154.982 114.376C144.245 126.941 129.684 134 114.5 134C99.3164 134 84.7546 126.941 74.0181 114.376C63.2817 101.811 57.25 84.7695 57.25 67C57.25 49.2305 63.2817 32.1888 74.0181 19.6238C84.7546 7.05891 99.3164 0 114.5 0C129.684 0 144.245 7.05891 154.982 19.6238C165.718 32.1888 171.75 49.2305 171.75 67Z" fill="black"/>
</svg>
