<svg width="26" height="43" viewBox="0 0 26 43" fill="none" xmlns="http://www.w3.org/2000/svg">
<mask id="path-1-outside-1_279_88" maskUnits="userSpaceOnUse" x="1" y="22" width="22" height="22" fill="black">
<rect fill="white" x="1" y="22" width="22" height="22"/>
<path d="M2.6 34.4V31.2H22V34.4H2.6ZM10.6 23H14V42.6H10.6V23Z"/>
</mask>
<path d="M2.6 34.4V31.2H22V34.4H2.6ZM10.6 23H14V42.6H10.6V23Z" fill="white" fill-opacity="0.5"/>
<path d="M2.6 34.4H1.6V35.4H2.6V34.4ZM2.6 31.2V30.2H1.6V31.2H2.6ZM22 31.2H23V30.2H22V31.2ZM22 34.4V35.4H23V34.4H22ZM10.6 23V22H9.6V23H10.6ZM14 23H15V22H14V23ZM14 42.6V43.6H15V42.6H14ZM10.6 42.6H9.6V43.6H10.6V42.6ZM3.6 34.4V31.2H1.6V34.4H3.6ZM2.6 32.2H22V30.2H2.6V32.2ZM21 31.2V34.4H23V31.2H21ZM22 33.4H2.6V35.4H22V33.4ZM10.6 24H14V22H10.6V24ZM13 23V42.6H15V23H13ZM14 41.6H10.6V43.6H14V41.6ZM11.6 42.6V23H9.6V42.6H11.6Z" fill="black" mask="url(#path-1-outside-1_279_88)"/>
</svg>
