<svg width="199" height="223" viewBox="0 0 199 223" fill="none" xmlns="http://www.w3.org/2000/svg">
<path fill-rule="evenodd" clip-rule="evenodd" d="M157.187 158.77L42.2363 159.436C22.7033 159.549 6.95657 175.728 7.06492 195.572C7.12586 206.733 16.0815 215.73 27.068 215.666L172.968 214.822C183.955 214.758 192.812 205.658 192.751 194.497C192.642 174.653 176.72 158.657 157.187 158.77ZM42.2028 153.297C19.3325 153.429 0.895324 172.372 1.02219 195.607C1.10164 210.159 12.7777 221.888 27.1015 221.805L173.002 220.961C187.326 220.878 198.873 209.014 198.794 194.462C198.667 171.227 180.024 152.499 157.154 152.631L42.2028 153.297Z" fill="black" fill-opacity="0.4"/>
<path fill-rule="evenodd" clip-rule="evenodd" d="M168.212 143.562L168.132 128.969C168.125 127.643 167.061 126.575 165.757 126.582C154.367 126.648 145.184 136.083 145.248 147.654L145.267 151.118C145.279 153.467 147.164 155.361 149.477 155.347L156.783 155.305C163.13 155.268 168.247 150.011 168.212 143.562ZM165.723 120.443C150.996 120.529 139.123 132.727 139.205 147.689L139.224 151.153C139.255 156.892 143.861 161.519 149.51 161.486L156.816 161.444C166.501 161.388 174.308 153.366 174.255 143.527L174.175 128.933C174.149 124.218 170.365 120.416 165.723 120.443Z" fill="black" fill-opacity="0.4"/>
<path fill-rule="evenodd" clip-rule="evenodd" d="M31.0463 144.357L30.9665 129.764C30.9592 128.438 32.011 127.358 33.3157 127.35C44.7058 127.284 53.9906 136.611 54.0539 148.183L54.0728 151.646C54.0857 153.996 52.2215 155.911 49.909 155.924L42.6031 155.967C36.2557 156.004 31.0815 150.806 31.0463 144.357ZM33.2821 121.211C48.0095 121.126 60.0148 133.186 60.0966 148.148L60.1155 151.611C60.1469 157.351 55.5923 162.031 49.9426 162.063L42.6366 162.106C32.9519 162.162 25.0573 154.231 25.0035 144.392L24.9237 129.799C24.8979 125.083 28.6401 121.238 33.2821 121.211Z" fill="black" fill-opacity="0.4"/>
<path fill-rule="evenodd" clip-rule="evenodd" d="M102.404 172.786L104.253 172.775C108.134 172.753 111.297 175.93 111.319 179.873L111.373 189.728C111.408 196.176 106.291 201.434 99.9435 201.471C93.5961 201.507 88.422 196.31 88.3867 189.861L88.3722 187.202C88.3289 179.285 94.611 172.831 102.404 172.786ZM104.22 166.636C111.438 166.594 117.321 172.505 117.362 179.838L117.415 189.693C117.469 199.532 109.662 207.553 99.9771 207.61C90.2924 207.666 82.3978 199.735 82.344 189.896L82.3294 187.237C82.2676 175.93 91.2402 166.711 102.37 166.647L104.22 166.636Z" fill="#E07A5F"/>
<path fill-rule="evenodd" clip-rule="evenodd" d="M119.328 6.99352C118.616 7.46891 117.665 8.57552 116.776 10.8537C115.621 13.815 114.801 18.4446 114.067 24.0261C113.777 26.2321 113.498 28.6119 113.213 31.0375C112.807 34.4969 112.39 38.0495 111.915 41.324C111.103 46.9262 110.041 52.4002 108.293 56.3439C107.418 58.318 106.244 60.2114 104.576 61.4906C102.772 62.8744 100.586 63.3816 98.2269 62.8197C94.4549 61.9213 91.8002 58.7063 89.8534 55.6676C88.3767 53.3627 86.9891 50.619 85.7025 48.075C85.2534 47.187 84.8166 46.3233 84.3926 45.5111C82.6255 42.1261 81.0953 39.6608 79.5657 38.3925C78.8738 37.8188 78.3446 37.6327 77.9216 37.6035C77.506 37.5749 76.8282 37.6723 75.7876 38.3483C70.0608 42.0681 65.1202 49.314 61.7039 58.2727C58.311 67.17 56.5764 77.3631 56.9578 86.5108C57.6461 103.02 63.7146 112.482 71.5271 117.932C79.5106 123.501 89.7707 125.199 99.2785 125.143C108.562 125.089 118.995 122.367 127.136 115.849C135.174 109.413 141.233 99.0822 141.614 83.1847C142.335 53.0831 136.741 30.0625 130.202 17.2842C128.575 14.1034 126.927 11.6325 125.363 9.8623C123.775 8.0646 122.418 7.15063 121.406 6.80163C120.521 6.49613 119.908 6.60627 119.328 6.99352ZM135.564 14.4519C142.701 28.3982 148.394 52.5176 147.655 83.3333C147.233 100.947 140.412 113.036 130.876 120.671C121.443 128.223 109.608 131.222 99.3125 131.282C89.2409 131.341 77.545 129.577 68.1062 122.993C58.4965 116.29 51.6765 104.908 50.9204 86.7714C50.5017 76.7289 52.3936 65.6942 56.0692 56.0556C59.7215 46.4782 65.2915 37.8798 72.533 33.1761C74.3828 31.9746 76.3287 31.3405 78.3314 31.4785C80.3267 31.616 82.0103 32.4946 83.3871 33.6362C85.9948 35.7985 88.0251 39.3659 89.7312 42.6341C90.2439 43.6164 90.7349 44.5871 91.2155 45.5371C92.4543 47.9861 93.6238 50.298 94.9181 52.3182C96.7597 55.1928 98.2959 56.5303 99.6069 56.8426C100.214 56.9872 100.561 56.8785 100.936 56.591C101.447 56.1989 102.1 55.3655 102.783 53.8244C104.151 50.738 105.126 46.0284 105.937 40.4303C106.41 37.1704 106.799 33.8396 107.19 30.4977C107.475 28.0679 107.76 25.6323 108.078 23.214C108.803 17.6985 109.692 12.3512 111.158 8.59237C112.293 5.68456 113.864 3.296 116.009 1.86333C118.287 0.342519 120.867 0.131727 123.351 0.988689C125.708 1.80214 127.893 3.53403 129.861 5.76186C131.853 8.01714 133.773 10.9515 135.564 14.4519Z" fill="black" fill-opacity="0.4"/>
<path fill-rule="evenodd" clip-rule="evenodd" d="M110.159 60.8025C109.801 61.0649 109.322 61.6757 108.875 62.9334C108.294 64.5683 107.883 67.1243 107.514 70.206C107.368 71.424 107.228 72.738 107.085 74.0772C106.881 75.9873 106.672 77.9487 106.434 79.7566C106.026 82.8498 105.492 85.872 104.613 88.0492C104.173 89.139 103.582 90.1842 102.743 90.8902C101.835 91.6538 100.735 91.9334 99.5478 91.6226C97.6494 91.1257 96.313 89.35 95.3329 87.6717C94.5895 86.3987 93.8908 84.8834 93.243 83.4785C93.0168 82.9881 92.7969 82.5111 92.5834 82.0625C91.6937 80.1931 90.9233 78.8316 90.1534 78.1309C89.8051 77.814 89.5387 77.7111 89.3259 77.6949C89.1167 77.679 88.7756 77.7327 88.252 78.1056C85.3706 80.1583 82.8852 84.1581 81.1672 89.1039C79.4609 94.0159 78.5894 99.6436 78.7826 104.695C79.1312 113.811 82.1864 119.036 86.1188 122.047C90.1372 125.124 95.3007 126.064 100.085 126.035C104.757 126.007 110.007 124.507 114.103 120.909C118.147 117.358 121.195 111.655 121.385 102.877C121.744 86.2562 118.925 73.544 115.633 66.487C114.814 64.7303 113.984 63.3657 113.197 62.3879C112.397 61.3949 111.714 60.89 111.205 60.6971C110.76 60.5282 110.451 60.5889 110.159 60.8025ZM118.331 64.9243C121.924 72.6264 124.792 85.9453 124.425 102.96C124.215 112.686 120.784 119.359 115.986 123.572C111.24 127.74 105.285 129.394 100.103 129.425C95.0349 129.455 89.1488 128.478 84.3979 124.841C79.561 121.138 76.1273 114.852 75.7443 104.837C75.5323 99.2921 76.4829 93.1997 78.3313 87.8785C80.1679 82.5911 82.9699 77.8447 86.6135 75.2491C87.5442 74.5861 88.5234 74.2364 89.5312 74.313C90.5354 74.3894 91.3828 74.8749 92.0758 75.5055C93.3884 76.7 94.4106 78.6702 95.2696 80.4752C95.5278 81.0177 95.775 81.5537 96.017 82.0784C96.6408 83.4309 97.2296 84.7077 97.8812 85.8234C98.8084 87.411 99.5816 88.1499 100.241 88.3226C100.547 88.4026 100.722 88.3427 100.91 88.184C101.167 87.9676 101.496 87.5076 101.839 86.6568C102.527 84.9529 103.017 82.3527 103.425 79.2619C103.662 77.462 103.858 75.623 104.054 73.7778C104.197 72.4363 104.34 71.0915 104.5 69.7563C104.864 66.7111 105.311 63.7587 106.048 61.6836C106.619 60.0782 107.409 58.7597 108.488 57.9692C109.634 57.1299 110.933 57.0141 112.183 57.4878C113.369 57.9375 114.469 58.8943 115.46 60.1248C116.462 61.3705 117.429 62.9911 118.331 64.9243Z" fill="#E07A5F"/>
</svg>
